# Blender v2.79 (sub 0) OBJ File: 'simple_house.blend'
# www.blender.org
mtllib simple_house.mtl
o Cube_Cube.001
v -0.062184 -0.031073 -0.100014
v -0.062184 -0.031073 -0.800014
v -0.062184 -0.906073 -0.100014
v -0.062184 -0.906073 -0.800014
v -0.062184 0.031427 -0.100014
v -0.062184 -0.968573 -0.100014
v -0.000002 -0.031073 -0.100014
v -0.000002 -0.906073 -0.100014
v -0.062184 0.031427 -0.000014
v -0.062184 -0.968573 -0.000014
v -0.000002 -0.031073 -0.000014
v -0.000002 -0.906073 -0.000014
v 0.009245 0.031427 -0.800014
v 0.009245 -0.968573 -0.800014
v -0.062184 0.031427 -0.800014
v -0.062184 -0.968573 -0.800014
v -0.919327 -0.031073 -0.100014
v -0.919327 -0.031073 -0.800014
v -0.919327 -0.906073 -0.100014
v -0.919327 -0.906073 -0.800014
v -0.919327 0.031427 -0.100014
v -0.919327 -0.968573 -0.100014
v -0.981508 -0.031073 -0.100014
v -0.981508 -0.906073 -0.100014
v -0.919327 0.031427 -0.000014
v -0.919327 -0.968573 -0.000014
v -0.981508 -0.031073 -0.000014
v -0.981508 -0.906073 -0.000014
v -0.490755 -0.906073 -1.400014
v -0.490755 -0.031073 -1.400014
v -0.990755 0.031427 -0.800014
v -0.990755 -0.968573 -0.800014
v -0.490755 -0.968573 -1.500014
v -0.490755 0.031427 -1.500014
v -0.490755 -0.968573 -1.400014
v -0.490755 0.031427 -1.400014
v -0.919327 0.031427 -0.800014
v -0.919327 -0.968573 -0.800014
v -0.323919 -0.514756 -1.257795
v -0.248403 -0.514756 -1.153782
v -0.323919 -0.420517 -1.257795
v -0.248403 -0.420517 -1.153782
v -0.323745 -0.514756 -1.344572
v -0.248577 -0.514756 -1.345257
v -0.323745 -0.420517 -1.344572
v -0.248577 -0.420517 -1.345257
v -0.342763 -0.538599 -1.346471
v -0.229560 -0.538599 -1.347505
v -0.342763 -0.396675 -1.346471
v -0.229560 -0.396675 -1.347505
v -0.342996 -0.538599 -1.389326
v -0.229793 -0.538599 -1.390360
v -0.342996 -0.396675 -1.389326
v -0.229793 -0.396675 -1.390359
v -0.325408 -0.516547 -1.389487
v -0.247383 -0.516547 -1.390198
v -0.325408 -0.418726 -1.389487
v -0.247383 -0.418726 -1.390198
v -0.308202 -0.495313 -1.340471
v -0.264051 -0.495313 -1.340873
v -0.308202 -0.439961 -1.340471
v -0.264051 -0.439961 -1.340873
v -0.307930 -0.495313 -1.290713
v -0.263779 -0.495313 -1.291115
v -0.307930 -0.439961 -1.290713
v -0.263779 -0.439961 -1.291115
vt 0.565159 0.396664
vt 0.416660 0.688943
vt 0.416660 0.396664
vt 0.607587 0.459295
vt 0.862158 0.605434
vt 0.607587 0.605434
vt 0.039682 0.334033
vt 0.021214 0.041754
vt 0.039682 0.041754
vt 0.039682 0.354910
vt 0.021214 0.334033
vt 0.039682 0.020877
vt 0.353017 0.396664
vt 0.374231 0.688943
vt 0.353017 0.688943
vt 0.294252 0.334033
vt 0.273653 0.901586
vt 0.294867 0.929266
vt 0.273653 0.929266
vt 0.294252 0.020877
vt 0.925801 0.602437
vt 0.904587 0.574757
vt 0.925801 0.574757
vt 0.862158 0.459295
vt 0.734873 0.334033
vt 0.231224 0.396664
vt 0.021214 0.730697
vt 0.021214 0.396664
vt 0.565159 0.730697
vt 0.370149 0.745459
vt 0.355149 0.730697
vt 0.231225 0.979123
vt 0.216224 0.787213
vt 0.231225 0.772451
vt 0.756086 0.939467
vt 0.607587 0.647189
vt 0.756086 0.647188
vt 0.862158 0.647188
vt 0.883372 0.897713
vt 0.862158 0.897713
vt 0.312720 0.041754
vt 0.294252 0.041754
vt 0.312720 0.334033
vt 0.294252 0.354910
vt 0.294867 0.396664
vt 0.273653 0.688943
vt 0.273653 0.396664
vt 0.798515 0.647188
vt 0.819729 0.897713
vt 0.798515 0.897713
vt 0.925801 0.505323
vt 0.904587 0.533003
vt 0.904587 0.505323
vt 0.607587 0.292279
vt 0.862158 0.146139
vt 0.862158 0.292279
vt 0.925801 0.435890
vt 0.904587 0.463569
vt 0.904587 0.435890
vt 0.734873 0.020877
vt 0.607587 0.146139
vt 0.355149 0.354910
vt 0.565159 0.020877
vt 0.565159 0.354910
vt 0.550158 0.922607
vt 0.565159 0.937369
vt 0.021214 0.772451
vt 0.036215 0.787213
vt 0.565159 0.688943
vt 0.374231 0.396664
vt 0.294867 0.901586
vt 0.904587 0.602437
vt 0.231225 0.730697
vt 0.550158 0.745459
vt 0.216224 0.964361
vt 0.607587 0.939467
vt 0.883372 0.647188
vt 0.294867 0.688943
vt 0.819729 0.647188
vt 0.925801 0.533003
vt 0.925801 0.463569
vt 0.355149 0.020877
vt 0.904587 0.039109
vt 0.926987 0.020877
vt 0.926987 0.060851
vt 0.922996 0.362657
vt 0.904587 0.394136
vt 0.904587 0.362657
vt 0.904587 0.124348
vt 0.926987 0.142580
vt 0.904662 0.142465
vt 0.305640 0.819858
vt 0.273653 0.859832
vt 0.273653 0.819858
vt 0.934892 0.829135
vt 0.925800 0.796057
vt 0.934892 0.796048
vt 0.913678 0.320903
vt 0.904587 0.273495
vt 0.913678 0.273495
vt 0.925800 0.903987
vt 0.934892 0.870909
vt 0.934892 0.903997
vt 0.913678 0.231741
vt 0.904587 0.184334
vt 0.913678 0.184334
vt 0.307275 0.730697
vt 0.278877 0.738063
vt 0.273653 0.730697
vt 0.307275 0.778104
vt 0.302051 0.738063
vt 0.278877 0.770738
vt 0.302051 0.770738
vt 0.273653 0.778104
vt 0.968786 0.248894
vt 0.956107 0.266737
vt 0.956107 0.253832
vt 0.937387 0.647188
vt 0.925800 0.672771
vt 0.925800 0.654281
vt 0.968786 0.207140
vt 0.956107 0.189296
vt 0.968786 0.184334
vt 0.937376 0.754294
vt 0.925800 0.728711
vt 0.937376 0.721618
vt 0.978786 0.435902
vt 0.968230 0.448794
vt 0.968230 0.435890
vt 0.965424 0.362657
vt 0.975980 0.381146
vt 0.965424 0.381146
vt 0.925800 0.945763
vt 0.936357 0.958655
vt 0.925800 0.958667
vt 0.854056 0.939467
vt 0.864612 0.957957
vt 0.854056 0.957957
vt 0.798515 0.939467
vt 0.811628 0.957957
vt 0.798515 0.957957
vt 0.904662 0.020992
vt 0.922996 0.394136
vt 0.926987 0.102606
vt 0.305640 0.859832
vt 0.925800 0.829145
vt 0.904587 0.320903
vt 0.925800 0.870899
vt 0.904587 0.231741
vt 0.968786 0.271699
vt 0.937387 0.679864
vt 0.956107 0.202201
vt 0.925800 0.747201
vt 0.978786 0.448806
vt 0.975980 0.362657
vt 0.936357 0.945751
vt 0.864612 0.939467
vt 0.811628 0.939467
vn 1.0000 -0.0000 0.0000
vn 0.0000 1.0000 0.0000
vn 0.0000 -0.0000 -1.0000
vn 0.7089 0.7053 0.0000
vn 0.7089 -0.7053 0.0000
vn 0.8137 -0.0000 -0.5812
vn 0.0000 -1.0000 0.0000
vn -1.0000 0.0000 0.0000
vn -0.7089 0.7053 0.0000
vn -0.7089 -0.7053 0.0000
vn -0.8137 0.0000 -0.5812
vn -0.5302 -0.8478 -0.0010
vn 0.7089 -0.7053 -0.0006
vn 0.9287 -0.3707 -0.0008
vn -0.7046 0.7096 -0.0014
vn -0.7046 -0.7096 -0.0014
vn -0.5302 0.8478 -0.0010
vn 0.7089 0.7053 -0.0006
vn 0.9287 0.3707 -0.0008
vn -0.7079 -0.7063 0.0038
vn 0.5732 -0.5771 -0.5816
vn 0.7063 -0.7079 -0.0038
vn -0.7079 0.7063 0.0038
vn -0.5814 -0.5775 -0.5730
vn 0.5732 0.5771 -0.5816
vn -0.5814 0.5775 -0.5730
vn 0.7063 0.7079 -0.0038
vn -0.2005 0.1987 -0.9593
vn 0.1834 0.1997 -0.9625
vn -0.2006 -0.1987 -0.9593
vn 0.1834 -0.1997 -0.9625
vn 0.6899 0.6662 -0.2831
vn -0.6937 0.6655 -0.2756
vn 0.6899 -0.6662 -0.2831
vn -0.6937 -0.6655 -0.2756
usemtl Texture
s off
f 4/1/1 1/2/1 3/3/1
f 2/4/2 17/5/2 1/6/2
f 1/7/3 8/8/3 3/9/3
f 1/7/3 5/10/3 7/11/3
f 3/9/3 8/8/3 6/12/3
f 7/13/1 12/14/1 8/15/1
f 17/16/3 5/10/3 1/7/3
f 5/17/4 11/18/4 7/19/4
f 22/20/3 3/9/3 6/12/3
f 8/21/5 10/22/5 6/23/5
f 18/24/2 2/4/2 30/25/2
f 13/26/6 33/27/6 34/28/6
f 34/29/2 15/30/2 13/31/2
f 14/32/7 35/33/7 33/34/7
f 17/35/8 20/36/8 19/37/8
f 26/38/7 6/39/7 10/40/7
f 24/41/3 17/16/3 19/42/3
f 17/16/3 23/43/3 21/44/3
f 19/42/3 22/20/3 24/41/3
f 28/45/8 23/46/8 24/47/8
f 9/48/2 21/49/2 25/50/2
f 27/51/9 21/52/9 23/53/9
f 19/54/7 4/55/7 3/56/7
f 26/57/10 24/58/10 22/59/10
f 29/60/7 4/55/7 20/61/7
f 34/62/11 32/63/11 31/64/11
f 37/65/2 34/29/2 31/66/2
f 32/67/7 35/33/7 38/68/7
f 4/1/1 2/69/1 1/2/1
f 2/4/2 18/24/2 17/5/2
f 1/7/3 7/11/3 8/8/3
f 7/13/1 11/70/1 12/14/1
f 17/16/3 21/44/3 5/10/3
f 5/17/4 9/71/4 11/18/4
f 22/20/3 19/42/3 3/9/3
f 8/21/5 12/72/5 10/22/5
f 13/26/6 14/73/6 33/27/6
f 34/29/2 36/74/2 15/30/2
f 14/32/7 16/75/7 35/33/7
f 17/35/8 18/76/8 20/36/8
f 26/38/7 22/77/7 6/39/7
f 24/41/3 23/43/3 17/16/3
f 28/45/8 27/78/8 23/46/8
f 9/48/2 5/79/2 21/49/2
f 27/51/9 25/80/9 21/52/9
f 19/54/7 20/61/7 4/55/7
f 26/57/10 28/81/10 24/58/10
f 34/62/11 33/82/11 32/63/11
f 37/65/2 36/74/2 34/29/2
f 32/67/7 33/34/7 35/33/7
s 1
f 39/83/12 44/84/13 40/85/14
f 39/86/12 45/87/15 43/88/16
f 41/89/17 46/90/18 45/91/15
f 40/92/14 46/93/18 42/94/19
f 47/95/20 52/96/21 48/97/22
f 49/98/23 51/99/24 47/100/20
f 49/101/23 54/102/25 53/103/26
f 48/104/22 54/105/25 50/106/27
f 51/107/24 56/108/28 52/109/21
f 53/110/26 55/111/29 51/107/24
f 53/110/26 58/112/30 57/113/31
f 54/114/25 56/108/28 58/112/30
f 56/115/28 59/116/32 60/117/33
f 55/118/29 61/119/34 59/120/32
f 58/121/30 61/122/34 57/123/31
f 56/124/28 62/125/35 58/126/30
f 60/127/33 63/128/25 64/129/26
f 61/130/34 63/131/25 59/132/32
f 62/133/35 65/134/21 61/135/34
f 60/136/33 66/137/24 62/138/35
f 64/139/26 65/140/21 66/141/24
f 39/83/12 43/142/16 44/84/13
f 39/86/12 41/143/17 45/87/15
f 41/89/17 42/144/19 46/90/18
f 40/92/14 44/145/13 46/93/18
f 47/95/20 51/146/24 52/96/21
f 49/98/23 53/147/26 51/99/24
f 49/101/23 50/148/27 54/102/25
f 48/104/22 52/149/21 54/105/25
f 51/107/24 55/111/29 56/108/28
f 53/110/26 57/113/31 55/111/29
f 53/110/26 54/114/25 58/112/30
f 54/114/25 52/109/21 56/108/28
f 56/115/28 55/150/29 59/116/32
f 55/118/29 57/151/31 61/119/34
f 58/121/30 62/152/35 61/122/34
f 56/124/28 60/153/33 62/125/35
f 60/127/33 59/154/32 63/128/25
f 61/130/34 65/155/21 63/131/25
f 62/133/35 66/156/24 65/134/21
f 60/136/33 64/157/26 66/137/24
f 64/139/26 63/158/25 65/140/21
